<?xml version="1.0" encoding="UTF-8"?>
<svg id="Ebene_1" xmlns="http://www.w3.org/2000/svg" version="1.1" viewBox="0 0 36 36">
  <!-- Generator: Adobe Illustrator 30.2.0, SVG Export Plug-In . SVG Version: 2.1.1 Build 105)  -->
  <defs>
    <style>
      .st0 {
        fill: #24144d;
      }
    </style>
  </defs>
  <path class="st0" d="M34.68,19.4l.02.08-.13.25c-.06.11-.18.19-.31.22-.37.09-.71.23-1.02.45l-.89.6c-.22.15-.4.33-.6.51s-.39.33-.61.48c-.13.1-.18.28-.16.44.02.13.05.25.05.38,0,.24.13.32.01.39-.04.03-.09.04-.13.08.05.02.1.01.14.05.04.03.03.1,0,.14-.03.05-.02.11-.03.16s-.05.08-.02.14c.09.16.12.35.11.54-.03.39-.13.52-.12.97.02.74-.11.66-.15,1.27-.01.21-.02.41-.06.62-.03.17-.06.33-.06.5-.01.48-.2.78-.24,1.15-.02.19-.04.37-.08.55-.14.53,0,1.09-.41,1.6-.04.04-.1.06-.13.12-.01.03-.06.04-.1.04-.02,0-.06-.03-.08-.06-.07-.09-.08-.21-.08-.32-.01-.3.02-.58.03-.88.01-.4.04-.77.1-1.17l.13-.86.16-1.28c.06-.45.1-.89.14-1.34.03-.35.07-.69.07-1.04,0-.47-.02-.92-.08-1.39-.05-.38-.15-.73-.3-1.07-.3-.65-1.19-.28-1.67-.08-.06.03-.09.08-.1.15-.01.42.13.8.12,1.25,0,.13-.06.25-.19.29-.03,0-.07-.01-.09-.04-.11-.15-.21-.3-.3-.47-.23-.42-.15-.67-.2-.73-.09-.1-.74.47-.85.57-.4.38-.76.8-1.09,1.24-.48.65-.86,1.36-1.15,2.11-.24.63-.38,1.27-.45,1.93-.03.26-.23.48-.46.55-.14.04-.32.02-.39-.11-.09-.17-.1-.38-.08-.56.05-.37.13-.71.23-1.07l.3-1.05c.16-.57.27-1.13.33-1.72.09-.78.13-1.55.12-2.34,0-.7-.08-1.37-.16-2.06-.07-.58-.17-1.13-.34-1.7-.34-1.2-.7-2.15-1.25-3.26l-.71-1.44c-.04-.08-.1-.15-.2-.15-.3-.02-.61-.01-.92.05-.61.12-.65-.08-1.21.02-.15.02-.28.06-.43.06-.64.03-1.27.09-1.91.2l-1.28.22c-.07.01.04-.11.02-.13-.06-.07-.08.2-.41.24-.24.03-.46.07-.7.13-.53.14-1.05.31-1.56.5-.12.04-.17.15-.16.26.02.25.07.49.13.74.08.36.19.69.29,1.05l.26.91.38,1.12c.16.47.32.91.52,1.37.42.94.86,1.85,1.38,2.73.52.88,1.11,1.75,1.74,2.58.43.57.74,1.19,1.02,1.84.16.37.2.76-.12,1.07-.07.06-.16.09-.25.01-.14-.13-.28-.28-.38-.46l-1.14-2.01c-.25-.43-.51-.84-.84-1.21-.27-.3-.54-.57-.84-.83-.41-.36-.81-.71-1.24-1.05-.64-.5-1.3-.97-1.98-1.41-.29-.19-.58-.36-.88-.52-.25-.13-.48-.27-.71-.42-.02-.02-.06-.01-.08,0-.02,0-.04.04-.05.07l-.06.26c-.04.19.06.27-.07.35-.04.02-.12.05-.15,0-.16-.25-.22-.54-.21-.83,0-.08-.05-.14-.11-.16l-.25-.11c-.14-.06-.28-.1-.43-.14l-.68-.19s-.06.01-.07.02c-.08.08.15.34.2.45-.14.1-.32.11-.47.01-.22-.15-.28-.28-.58-.42-.09-.04-.17-.01-.24.06-.17.18-.28.41-.34.65-.06.23-.08.46-.1.7l-.05.61c-.01.13.08.23.21.25.48.07.26.32.4.37.1.03.18.13.17.24-.02.18-.2.07-.51.12-.1.02-.16.09-.14.2.04.35.12.69.24,1.03l.39,1.13c.13.39.24.77.4,1.15l.51,1.19c.22.51.46.99.72,1.48.23.43.45.85.64,1.29.15.35.3.68.52,1l.56.84c.44.65.95,1.2,1.41,1.84.09.12,0,.35-.09.4-.08.04-.17.03-.24-.02-.47-.32-.91-.85-1.24-1.32-.12-.18-.24-.34-.37-.51-.56-.7-.86-1.33-1.23-2.14-.13-.29-.25-.56-.41-.83-.13-.21-.24-.42-.34-.65-.08-.19-.16-.37-.27-.53-.08-.11-.15-.23-.18-.37-.07-.3-.18-.58-.31-.85-.17-.34-.3-.67-.44-1.02-.27-.71-.5-1.42-.69-2.15l-.22-.87c-.03-.12.05-.34-.14-.41-.08-.03-.18-.06-.28-.05-.42.03-.82.06-1.24.12-.26.04-.5.1-.74.2-.22.1-.56.08-.65-.16-.06-.16-.07-.17-.02-.02l-.02-.1c0-.19.11-.43.3-.52.48-.22,1-.3,1.53-.33.34-.01.66.02,1,.05.07,0,.11-.04.11-.1.01-.33.03-.64.07-.96.06-.54.24-1.19.54-1.63.05-.08.03-.17-.03-.23-.18-.17-.38-.32-.59-.46-.24-.16-.46-.31-.69-.49-.28-.21-.58-.37-.89-.54-.16-.09-.2-.34-.15-.51.07-.21.25-.36.46-.39.2-.03.39.02.55.13.23.15.44.32.65.49.23.19.42.39.61.63.11.13.23.24.35.35.14.13.27.26.39.4.03.03.1.04.14.04.87-.03,1.59.19,2.38.52.04.02.09.02.12,0,.03-.01.06-.05.07-.09l.18-.85c.03-.16.11-.32.27-.39.11-.05.26-.02.35.06.11.1.01.49-.01.65-.04.25-.13.48-.24.7-.05.11-.02.2.07.27.16.11.32.2.49.3l1.01.6.98.66c.31.21.59.43.88.66.18.14.34.27.51.41.02.02.07,0,.09-.01s0-.04,0-.07l-.9-2.1c-.3-.69-.53-1.39-.74-2.11l-.47-1.64c-.07-.26-.06-.87-.18-.91-.03-.01-.08-.01-.11,0-.33.21-.67.39-1.05.51-.27.09-.51-.37-.4-.69.08-.21.25-.38.47-.45.49-.18.54-.32.88-.46.05-.02.07-.06.07-.11l-.06-.59c-.02-.25-.07-.49-.11-.74-.03-.17-.02-.34-.02-.51,0-.4-.04-.79-.08-1.19-.06-.62-.1-1.23-.08-1.86.01-.34.01-.66,0-1.01-.01-.29-.02-.57.01-.86l.11-.94c.07-.56.12-1.07.41-1.58.3-.53.85-.83,1.46-.8.24,0,.21-.24.27-.4.09-.24.37-.23.57-.18.16.04.28.17.33.33.04.15.15.23.29.27.44.11.86.25,1.26.48.6.34,1.15.76,1.62,1.27.59.62,1.1,1.31,1.56,2.03l.75,1.17.55.95c.09.15,1.06,1.99,1.06,1.99l.07.21c.04.13.18.2.33.19.23,0,.45-.02.68.03.39.07.8.2,1.1.47.25.22.18.65-.06.84-.05.04-.1.07-.16.07-.17-.13-.37-.22-.59-.24l-.52-.05s-.09.04-.11.07c-.02.05.03.08.05.12l.32.66c.19.39.25.62.45,1s.39.8.54,1.22c.06.16.09.32.1.49.01.18.16.1.14.3-.03.36.34.5.28,1.17-.02.21.2.47.16.59-.1.26.07.26.11.63l.06.52c.03.24.07.47.06.71s0,.46.02.7c.02.37-.05.43.08.86.02.06-.05.11-.05.17l-.05,1.19s.09.02.11,0c.13-.14.24-.28.36-.44.4-.52.85-.98,1.35-1.42l.33-.29c.37-.32.56-.2.6-.54l.05-.48.03-1.89-.04-.36c-.03-.29.23-.54.54-.54.12,0,.23.04.33.09.04.02.06.07.05.12-.02.74-.09,1.47-.19,2.21-.02.18-.05.34-.06.51,0,.04.01.09.04.11s.07.02.11,0l.48-.16c.29-.1,1.14-.21,1.35.05.28.33.53.61.68,1.04.09.26-.06.39.06.44.1.04.18-.12.18-.12.16-.52.51-.75.89-1.09.49-.44,1.02-.83,1.61-1.13.13-.07.27-.11.41-.15s.28-.09.42-.14c.08-.03.16.01.21.06l.1.09v.02s0,0-.01,0ZM15.16,4.87s-.06.02-.07.03-.02.03,0,.06c.2.68.29.74.43,1.52.03.19.13.35.21.52.31.59.27.75.49,1.32.06.15-.19.13-.14.26.04.13.21.12.22.21.05.32.25.53.32.75l.08.29s-.03.08-.05.08c-.09.02-.08-.13-.14-.16-.05.04-.1.07-.15.03-.04-.03-.06-.07-.11-.09-.03.01.03.1-.01.12-.16.1-.71-1.29-.77-1.43l-.45-1.08c-.13-.32-.28-.6-.4-.92l-.64-1.71c-.03-.09-.11-.13-.2-.13-.22,0-.44.02-.65.07-.23.05-.4.2-.5.4-.23.48-.39,1.82-.39,2.37l-.02,2.46c0,.69.15,1.65.16,2.43,0,.24.04.46.1.69.02.09-.03.27.07.34.12.09.32-.03.42-.07.85-.33,1.71-.59,2.61-.75l1.03-.19c.85-.15,2.18-.37,3.02-.35l1.06.02s.06-.02.07-.03c.04-.06-.24-.65-.29-.72l-.22-.36c-.09-.15-.13-.31-.13-.49,0-.07-.37-.11-.35-.52,0-.16-.13-.04-.21-.2-.2-.37-.43-.71-.66-1.06l-.53-.8c-.55-.83-1.19-1.56-1.96-2.19-.37-.3-.76-.56-1.22-.72h-.03ZM21.14,11.13s.05-.03.04-.05c-.1-.2-.05-.27-.15-.36-.04.03-.07.07-.1.1-.06.06-.06.14,0,.2.04.04.17.13.22.1h-.01Z"/>
  <path class="st0" d="M29.04,24.49c-.15.34-.41.61-.79.6-.19,0-.34-.11-.41-.27-.08-.18-.02-.35.1-.49.14-.17.32-.24.53-.17l.49.17c.06.02.1.09.07.16h.01Z"/>
  <path class="st0" d="M9.46,23.78c-.02.08.06.32-.12.38-.26.08-.65.08-.78-.2s.09-.55.36-.67c.09-.04.19-.02.27.03.05.03.27-.04.3.18.01.1,0,.18-.03.28Z"/>
  <path class="st0" d="M13.22,23.09c-.13.15-.35.18-.53.17-.21-.01-.34-.18-.34-.38,0-.26.21-.49.48-.5.12,0,.23.05.33.11.22.15.14.52.07.6h0Z"/>
  <path class="st0" d="M10.86,28.43c-.05.19-.47.21-.7.08-.1-.06-.12-.19-.1-.3.05-.2.2-.37.39-.46.09-.04.17-.03.26,0,.12.04.2.12.21.26s-.01.28-.05.42c0,0-.01,0-.01,0Z"/>
</svg>